<?xml version="1.0" encoding="UTF-8"?>
<svg version="1.1" xmlns="http://www.w3.org/2000/svg" width="194" height="195">
<path d="M0 0 C7.4706357 -0.07658183 14.94116871 -0.12882159 22.41210938 -0.16479492 C24.94925723 -0.17980477 27.48637948 -0.20021897 30.0234375 -0.22631836 C33.68756462 -0.26304605 37.35134623 -0.27980508 41.015625 -0.29296875 C42.13487366 -0.30845261 43.25412231 -0.32393646 44.4072876 -0.33988953 C55.0180138 -0.3421153 65.55213775 1.10295304 74 8 C79.56002518 13.85265808 80.46110689 19.34899203 80.42944336 27.26391602 C80.19737409 34.74018694 77.88541188 39.13388853 72.6640625 44.3203125 C70.49227008 46.28657251 68.28769312 48.17084232 66 50 C66.54527344 50.20753906 67.09054688 50.41507813 67.65234375 50.62890625 C75.74962435 53.93702602 84.32642859 58.82768082 87.94921875 67.19140625 C90.91970599 76.73154252 91.5692873 86.83259709 87 96 C78.73857813 107.27906699 69.97914696 112.21933369 56.609375 115.60546875 C53.1753228 116.12468922 49.84641201 116.09331135 46.375 116.0625 C45.06273437 116.05347656 43.75046875 116.04445313 42.3984375 116.03515625 C40.71621094 116.01775391 40.71621094 116.01775391 39 116 C37.28121005 116 35.56231154 116.00713622 33.84375 116.03515625 C33.0703125 116.04417969 32.296875 116.05320312 31.5 116.0625 C30.7265625 116.07410156 29.953125 116.08570313 29.15625 116.09765625 C27 116 27 116 24 115 C23.25 113.0625 23.25 113.0625 23 111 C23.33 110.34 23.66 109.68 24 109 C29.0302076 109.52537724 34.01885239 110.10594786 39 111 C43.06552417 101.17498326 43.64461886 90.38881259 40.109375 80.25 C37.46040676 74.8774447 33.70776654 70.99360962 28.5625 68 C26 66 26 66 25.62890625 63.984375 C25.625 61.75 25.625 61.75 26 58 C33.26237119 58.16505389 39.25372296 61.73229717 45 66 C46.734375 68.62890625 46.734375 68.62890625 48 71 C48.66 71.556875 49.32 72.11375 50 72.6875 C53.12533137 76.30116439 53.94382652 80.40734888 55 85 C55.25330078 86.08667969 55.25330078 86.08667969 55.51171875 87.1953125 C56.6924229 94.0764055 54.81495222 100.36568313 53 107 C62.14131187 103.95849734 67.41350725 99.53529132 72 91 C74.01887568 83.79783115 74.238669 74.73238789 71.16796875 67.8125 C67.08653051 61.47876306 61.1492392 57.99925217 54 56 C50.67790212 55.42094941 47.35903415 55.09370946 44 54.8125 C43.12988281 54.73064453 42.25976562 54.64878906 41.36328125 54.56445312 C39.24308794 54.36641309 37.12164801 54.18179444 35 54 C35 52.68 35 51.36 35 50 C36.485 49.85304688 36.485 49.85304688 38 49.703125 C45.39434818 48.89265727 51.49488717 47.82653696 58 44 C58.66 44 59.32 44 60 44 C60.68774405 42.67741528 61.34711373 41.34013497 62 40 C62.53625 39.01 63.0725 38.02 63.625 37 C66.21021994 30.89307738 65.90583233 23.767821 63.875 17.5625 C59.45217606 11.51797395 53.33295469 7.51916113 46 6 C44.3413488 5.85701869 42.6789131 5.75458775 41.015625 5.68359375 C40.08105469 5.64169922 39.14648438 5.59980469 38.18359375 5.55664062 C37.21550781 5.51732422 36.24742188 5.47800781 35.25 5.4375 C34.26644531 5.39431641 33.28289062 5.35113281 32.26953125 5.30664062 C29.84648725 5.20077948 27.4233446 5.09869829 25 5 C25.01110306 6.10532074 25.02220612 7.21064148 25.03364563 8.34945679 C25.1352518 18.79471277 25.21007565 29.23986774 25.25906086 39.68550682 C25.28509191 45.05503401 25.32037119 50.42416044 25.37719727 55.79345703 C25.43174872 60.98062676 25.46146931 66.16741238 25.47438622 71.35484695 C25.48358466 73.32831489 25.5015469 75.30176313 25.52865028 77.27506638 C25.68605907 89.21646908 25.41681585 97.71152014 18.078125 107.5859375 C13.58883084 111.97930658 9.16262683 115.37147314 3 117 C-0.0625 116.75 -0.0625 116.75 -2 116 C-1.875 114.1875 -1.875 114.1875 -1 112 C0.3921875 111.319375 0.3921875 111.319375 1.8125 110.625 C5.80405632 108.59008893 6.91183405 106.95560414 9 103 C9.5526004 99.94025895 9.53734621 96.94804747 9.50170898 93.84521484 C9.50711197 92.94368179 9.51251495 92.04214874 9.51808167 91.11329651 C9.53054773 88.14550542 9.51409455 85.17868826 9.49609375 82.2109375 C9.49624876 80.14401193 9.49773807 78.07708607 9.50050354 76.01016235 C9.50188649 71.68437813 9.48934448 67.35892589 9.46655273 63.03320312 C9.43813302 57.4868775 9.44091654 51.94110189 9.45364285 46.39473534 C9.46059424 42.12937719 9.45281747 37.86414637 9.44038582 33.59880447 C9.43586859 31.55345777 9.43553688 29.50809742 9.43945122 27.46274948 C9.44235902 24.60687927 9.42587821 21.75177016 9.40405273 18.89599609 C9.41080521 17.62727913 9.41080521 17.62727913 9.41769409 16.33293152 C9.37528365 12.99587414 9.24889562 10.4709607 7.67396545 7.49087524 C5.30131022 5.37772952 3.10041474 5.27559242 0 5 C-0.33 4.01 -0.66 3.02 -1 2 C-0.67 1.34 -0.34 0.68 0 0 Z " fill="#5E4496" transform="translate(56,39)"/>
<path d="M0 0 C7.391961 6.03589252 13.5902038 12.53078471 19.30078125 20.1953125 C19.81640625 20.86304688 20.33203125 21.53078125 20.86328125 22.21875 C34.37331412 40.7950452 38.81130735 65.80473795 35.8359375 88.2578125 C33.3173624 102.32606632 28.07371527 115.22717343 20.30078125 127.1953125 C19.56601562 128.33033203 19.56601562 128.33033203 18.81640625 129.48828125 C17.71671803 131.10870419 16.51989232 132.66271572 15.30078125 134.1953125 C14.64078125 134.1953125 13.98078125 134.1953125 13.30078125 134.1953125 C13.08808594 134.74316406 12.87539062 135.29101562 12.65625 135.85546875 C10.82593723 139.01500001 8.3058803 141.22503942 5.61328125 143.6328125 C5.10861328 144.09751953 4.60394531 144.56222656 4.08398438 145.04101562 C-14.41669119 161.81090738 -38.73164153 168.65472129 -63.375 167.734375 C-81.78104443 166.49580572 -100.48762779 160.20923476 -114.69921875 148.1953125 C-115.3334375 147.67710937 -115.96765625 147.15890625 -116.62109375 146.625 C-136.99207481 129.30096055 -148.18915752 106.7213917 -150.69921875 80.1953125 C-151.85481042 65.43617681 -149.46139441 49.38332525 -142.69921875 36.1953125 C-142.14492187 35.01839844 -141.590625 33.84148438 -141.01953125 32.62890625 C-132.3977248 14.85934938 -118.86148744 1.83323679 -101.69921875 -7.8046875 C-101.00699219 -8.24554688 -100.31476563 -8.68640625 -99.6015625 -9.140625 C-92.79318498 -13.34018497 -85.40459355 -15.02778385 -77.69921875 -16.8046875 C-76.80589844 -17.03285156 -75.91257812 -17.26101562 -74.9921875 -17.49609375 C-49.56040936 -23.22325009 -20.41566755 -15.94077832 0 0 Z M-122.8515625 15.04296875 C-130.85346841 24.36442785 -136.33466658 33.71117523 -140.69921875 45.1953125 C-141.01503906 45.88625 -141.33085937 46.5771875 -141.65625 47.2890625 C-148.34032635 62.30353942 -147.52884999 85.54434728 -141.73828125 100.72265625 C-141.39539063 101.53863281 -141.0525 102.35460937 -140.69921875 103.1953125 C-140.46041992 103.78844238 -140.22162109 104.38157227 -139.97558594 104.99267578 C-136.68567505 113.13865275 -133.40079863 120.42964947 -127.69921875 127.1953125 C-126.83532284 128.41766075 -125.98090804 129.64677211 -125.13671875 130.8828125 C-121.37958423 136.14758699 -117.07539242 139.64932561 -111.69921875 143.1953125 C-111.08691406 143.82566406 -110.47460938 144.45601562 -109.84375 145.10546875 C-96.09534645 158.50327549 -75.03277772 162.07115824 -56.69921875 162.4453125 C-36.90546373 162.01939931 -16.94903343 157.14195541 -1.76171875 143.5703125 C-1.08109375 142.7865625 -0.40046875 142.0028125 0.30078125 141.1953125 C2.86523122 138.63086253 5.42727199 136.07457134 8.05078125 133.5703125 C10.49082799 131.32998138 10.49082799 131.32998138 11.30078125 128.1953125 C11.96078125 128.1953125 12.62078125 128.1953125 13.30078125 128.1953125 C27.33837066 109.97452145 33.49338908 87.15350793 30.78515625 64.29296875 C29.5597747 55.49469478 28.36479615 47.1936397 24.30078125 39.1953125 C23.89601562 38.32519531 23.49125 37.45507812 23.07421875 36.55859375 C20.88905971 31.96707859 18.60604282 28.09079934 15.30078125 24.1953125 C14.97078125 23.2053125 14.64078125 22.2153125 14.30078125 21.1953125 C12.67975157 19.48422561 11.00574662 17.82277944 9.30078125 16.1953125 C4.30078125 11.1953125 4.30078125 11.1953125 2.42578125 9.2578125 C-13.38814362 -6.09099693 -33.23743374 -13.19124813 -55.0390625 -13.12036133 C-57.06435144 -13.11720289 -59.08817178 -13.14073857 -61.11328125 -13.16601562 C-85.06688172 -13.17775759 -106.37120267 -2.13868299 -122.8515625 15.04296875 Z " fill="#574086" transform="translate(153.69921875,22.8046875)"/>
<path d="M0 0 C7.26237119 0.16505389 13.25372296 3.73229717 19 8 C20.734375 10.62890625 20.734375 10.62890625 22 13 C22.66 13.556875 23.32 14.11375 24 14.6875 C27.12533137 18.30116439 27.94382652 22.40734888 29 27 C29.25330078 28.08667969 29.25330078 28.08667969 29.51171875 29.1953125 C30.6924229 36.0764055 28.81495222 42.36568313 27 49 C28.79187629 48.18796242 30.58349451 47.37535532 32.375 46.5625 C33.37273437 46.11003906 34.37046875 45.65757812 35.3984375 45.19140625 C36.94307583 44.48402684 38.48044922 43.75977539 40 43 C40.042721 44.66611905 40.04063832 46.33382885 40 48 C39.67 48.33 39.34 48.66 39 49 C42.32534757 50.10844919 44.62182575 49.84454356 48 49 C48 49.66 48 50.32 48 51 C36.56395454 57.37779458 25.8298122 58.42925022 13 58 C11.28121005 58 9.56231154 58.00713622 7.84375 58.03515625 C7.0703125 58.04417969 6.296875 58.05320313 5.5 58.0625 C4.7265625 58.07410156 3.953125 58.08570313 3.15625 58.09765625 C1 58 1 58 -2 57 C-2.75 55.0625 -2.75 55.0625 -3 53 C-2.67 52.34 -2.34 51.68 -2 51 C3.0302076 51.52537724 8.01885239 52.10594786 13 53 C17.06552417 43.17498326 17.64461886 32.38881259 14.109375 22.25 C11.46040676 16.8774447 7.70776654 12.99360962 2.5625 10 C0 8 0 8 -0.37109375 5.984375 C-0.375 3.75 -0.375 3.75 0 0 Z " fill="#624A99" transform="translate(82,97)"/>
<path d="M0 0 C-1.31468458 3.02056799 -2.54074778 4.63043144 -5.1875 6.5625 C-11.58812375 11.8651088 -16.46036878 19.42007238 -17.7890625 27.6875 C-18.87551641 39.59825399 -17.37074955 47.62443345 -9.81640625 57.0546875 C-4.33990815 62.9198403 3.57284682 66.0791402 11.5625 66.5625 C17.62123265 66.28909149 23.74112663 63.25887337 28 59 C30.625 59.375 30.625 59.375 33 60 C33.495 61.98 33.495 61.98 34 64 C23.53342755 71.47204899 12.06070892 72.52227679 -0.5625 70.4375 C-8.74965001 68.27742168 -17.11255245 63.52632557 -21.8203125 56.3671875 C-27.7723466 44.42370185 -28.0595223 34.13167303 -24.328125 21.62890625 C-22.44227978 16.4761115 -19.77905372 12.91345521 -16 9 C-15.38382813 8.33097656 -14.76765625 7.66195312 -14.1328125 6.97265625 C-9.74141956 2.36452074 -6.62840174 -0.36824454 0 0 Z " fill="#A996CD" transform="translate(60,101)"/>
<path d="M0 0 C0.66 0 1.32 0 2 0 C2 1.32 2 2.64 2 4 C1.34 4 0.68 4 0 4 C0.268125 4.886875 0.53625 5.77375 0.8125 6.6875 C2.40121803 18.10784989 -7.70705729 31.28094256 -13.8125 40.25 C-14.534375 41.1575 -15.25625 42.065 -16 43 C-16.66 43 -17.32 43 -18 43 C-18.21269531 43.54785156 -18.42539063 44.09570312 -18.64453125 44.66015625 C-20.47484402 47.81968751 -22.99490095 50.02972692 -25.6875 52.4375 C-26.19216797 52.90220703 -26.69683594 53.36691406 -27.21679688 53.84570312 C-33.45313861 59.49861972 -39.9611432 63.76688931 -47.5625 67.375 C-48.65594727 67.92607422 -48.65594727 67.92607422 -49.77148438 68.48828125 C-54.24846164 70.62401298 -57.03469802 71.45899869 -62 70 C-62 69.01 -62 68.02 -62 67 C-61.10539062 66.63648438 -60.21078125 66.27296875 -59.2890625 65.8984375 C-52.46975365 63.06311719 -46.11843826 60.12283265 -39.890625 56.1015625 C-38 55 -38 55 -36 55 C-35.67 54.01 -35.34 53.02 -35 52 C-33.4765625 50.75390625 -33.4765625 50.75390625 -31.625 49.5625 C-28.78670392 47.64708547 -26.9816758 45.81606561 -25 43 C-24.34 43 -23.68 43 -23 43 C-22.690625 42.38125 -22.38125 41.7625 -22.0625 41.125 C-21.375 39.75 -20.6875 38.375 -20 37 C-19.34 37 -18.68 37 -18 37 C-17.72671875 36.25492188 -17.4534375 35.50984375 -17.171875 34.7421875 C-16.07942349 32.18585097 -14.90313168 30.33806338 -13.25 28.125 C-7.87923415 20.29263313 -4.92050396 10.96815132 -2 2 C-1.34 2 -0.68 2 0 2 C0 1.34 0 0.68 0 0 Z " fill="#523B83" transform="translate(185,114)"/>
<path d="M0 0 C0.66 0 1.32 0 2 0 C2 1.32 2 2.64 2 4 C1.34 4 0.68 4 0 4 C0.268125 4.886875 0.53625 5.77375 0.8125 6.6875 C2.21402311 16.76221685 -5.85670821 27.90079339 -11 36 C-11.70189453 37.12341797 -11.70189453 37.12341797 -12.41796875 38.26953125 C-15.43030705 42.82047927 -15.43030705 42.82047927 -18.14453125 43.67578125 C-18.75683594 43.78277344 -19.36914062 43.88976562 -20 44 C-20 43.34 -20 42.68 -20 42 C-20.66 42 -21.32 42 -22 42 C-21.34 40.35 -20.68 38.7 -20 37 C-19.34 37 -18.68 37 -18 37 C-17.72671875 36.25492188 -17.4534375 35.50984375 -17.171875 34.7421875 C-16.07942349 32.18585097 -14.90313168 30.33806338 -13.25 28.125 C-7.87923415 20.29263313 -4.92050396 10.96815132 -2 2 C-1.34 2 -0.68 2 0 2 C0 1.34 0 0.68 0 0 Z " fill="#4C3279" transform="translate(185,114)"/>
<path d="M0 0 C0 4.24645065 -1.81750806 6.38524772 -4 10 C-1.525 10.495 -1.525 10.495 1 11 C0.34 12.65 -0.32 14.3 -1 16 C-0.34 16.66 0.32 17.32 1 18 C-3.40895522 19.25970149 -3.40895522 19.25970149 -6.0625 18.09375 C-10.23827476 16.53894025 -14.39543508 16.2768508 -18.8125 15.875 C-19.69615234 15.78863281 -20.57980469 15.70226562 -21.49023438 15.61328125 C-23.65952058 15.40221556 -25.82968458 15.20020574 -28 15 C-28 13.68 -28 12.36 -28 11 C-27.01 10.90203125 -26.02 10.8040625 -25 10.703125 C-17.60565182 9.89265727 -11.50511283 8.82653696 -5 5 C-4.34 5 -3.68 5 -3 5 C-2.690625 4.360625 -2.38125 3.72125 -2.0625 3.0625 C-1 1 -1 1 0 0 Z " fill="#6C549F" transform="translate(119,78)"/>
<path d="M0 0 C4.5265271 1.31631945 7.96885788 3.13237749 11.875 5.75 C19.18599384 10.38170477 26.83187166 13.23185381 35 16 C34.67 17.32 34.34 18.64 34 20 C26.89460024 19.57239319 21.66205189 17.89677071 15.3125 14.75 C14.49716797 14.36714844 13.68183594 13.98429688 12.84179688 13.58984375 C1.24272068 7.98252963 1.24272068 7.98252963 -0.9375 2.75 C-0.958125 2.1725 -0.97875 1.595 -1 1 C-0.67 0.67 -0.34 0.34 0 0 Z " fill="#4F3A7F" transform="translate(39,166)"/>
<path d="M0 0 C0 0.33 0 0.66 0 1 C-1.98 1 -3.96 1 -6 1 C-6 1.66 -6 2.32 -6 3 C-6.99 3.33 -7.98 3.66 -9 4 C-3.555 4.495 -3.555 4.495 2 5 C2 5.33 2 5.66 2 6 C1.21463867 6.01458252 0.42927734 6.02916504 -0.37988281 6.04418945 C-4.00370292 6.11953041 -7.6266866 6.21590261 -11.25 6.3125 C-12.48492187 6.33505859 -13.71984375 6.35761719 -14.9921875 6.38085938 C-22.18634251 6.58911123 -28.60516804 7.36995576 -35.50292969 9.46557617 C-38.1514165 10.03240621 -39.50274188 9.99243895 -42 9 C-42.66 8.34 -43.32 7.68 -44 7 C-30.69915224 -1.03592885 -15.00205995 -0.415016 0 0 Z " fill="#432B7C" transform="translate(107,4)"/>
<path d="M0 0 C1.6875 1.5625 1.6875 1.5625 3 3 C-0.11437585 5.07625057 -3.24618377 6.57906569 -6.625 8.1875 C-12.67980033 11.13004181 -17.90314934 14.5638522 -23 19 C-23.33 18.34 -23.66 17.68 -24 17 C-26.31 17.66 -28.62 18.32 -31 19 C-26.20254146 12.64660896 -20.84975258 8.97231358 -14 5 C-12.99324219 4.40316406 -11.98648438 3.80632813 -10.94921875 3.19140625 C-3.40530672 -1.13510224 -3.40530672 -1.13510224 0 0 Z " fill="#4D3583" transform="translate(64,11)"/>
<path d="M0 0 C6.83018485 0.37945471 12.18390736 2.36069057 18 6 C18.33 6.66 18.66 7.32 19 8 C18.443125 7.7525 17.88625 7.505 17.3125 7.25 C14.80900253 6.73446693 14.80900253 6.73446693 12.375 8.6875 C10.18676554 10.81814935 9.24360627 12.29030743 8 15 C7.56429687 14.60167969 7.12859375 14.20335937 6.6796875 13.79296875 C2.99005314 10.51063169 -0.43077198 8.00600254 -5 6 C-4.67 5.01 -4.34 4.02 -4 3 C-1.9375 2.3125 -1.9375 2.3125 0 2 C0 1.34 0 0.68 0 0 Z " fill="#745AA2" transform="translate(111,40)"/>
<path d="M0 0 C15.18 0 30.36 0 46 0 C46 2 46 2 44.9284668 3.62036133 C42.01351493 5.70573834 39.6817081 5.23839152 36.14453125 5.07421875 C35.48289474 5.04777786 34.82125824 5.02133698 34.13957214 4.99409485 C32.02961927 4.90643127 29.92140776 4.79725639 27.8125 4.6875 C26.38092146 4.62423028 24.94928013 4.56236456 23.51757812 4.50195312 C20.01084421 4.35091097 16.5053518 4.18056436 13 4 C13 3.34 13 2.68 13 2 C8.71 1.67 4.42 1.34 0 1 C0 0.67 0 0.34 0 0 Z " fill="#533C8B" transform="translate(65,40)"/>
<path d="M0 0 C9.9972476 -0.67020654 21.44872595 0.29915063 30 6 C30 6.99 30 7.98 30 9 C27 8 27 8 26 7 C26 7.33 26 7.66 26 8 C21.51469518 7.57282811 17.25049365 7.07252537 12.875 6 C7.57934717 4.79242194 2.35193697 4.55585802 -3.0625 4.375 C-4.02349609 4.33632812 -4.98449219 4.29765625 -5.97460938 4.2578125 C-8.31622814 4.16461374 -10.65786037 4.07880815 -13 4 C-13 3.67 -13 3.34 -13 3 C-6.565 2.505 -6.565 2.505 0 2 C0 1.34 0 0.68 0 0 Z " fill="#60458C" transform="translate(101,5)"/>
<path d="M0 0 C0.33 0 0.66 0 1 0 C3.80182859 6.81346592 4.38616754 12.7423651 4.1875 20.0625 C4.17396484 21.02349609 4.16042969 21.98449219 4.14648438 22.97460938 C4.11152306 25.31701752 4.06246104 27.65819156 4 30 C3.01 29.67 2.02 29.34 1 29 C0.67 30.98 0.34 32.96 0 35 C-0.33 35 -0.66 35 -1 35 C-2.59735576 23.0198318 -1.97482292 11.91946692 0 0 Z " fill="#594287" transform="translate(5,77)"/>
<path d="M0 0 C-0.66 1.32 -1.32 2.64 -2 4 C-1.67 4.33 -1.34 4.66 -1 5 C-1.3822859 9.68300226 -2.49574446 13.4627276 -4.234375 17.80078125 C-5.61268139 21.75989602 -6.28207309 25.87825494 -7 30 C-10.44216082 26.04517693 -10.55610061 23.19678177 -10.42578125 18.09375 C-9.69476341 12.78213411 -6.87899078 0 0 0 Z " fill="#422A75" transform="translate(16,56)"/>
<path d="M0 0 C6.35312877 1.79190812 13.25993041 4.38989562 17 10 C17.70125 10.680625 18.4025 11.36125 19.125 12.0625 C21 14 21 14 21 16 C17.58166198 15.33532316 15.00571017 13.9854398 12 12.25 C6.18494803 9.00110457 0.19045678 6.44161123 -6 4 C-5.34 3.01 -4.68 2.02 -4 1 C-2 1 -2 1 -0.375 2.5 C0.07875 2.995 0.5325 3.49 1 4 C0.67 2.68 0.34 1.36 0 0 Z " fill="#4B357E" transform="translate(130,10)"/>
<path d="M0 0 C0.33 0.66 0.66 1.32 1 2 C1.66 2 2.32 2 3 2 C3.19335938 3.03640625 3.38671875 4.0728125 3.5859375 5.140625 C3.84864867 6.51047609 4.11168671 7.88026452 4.375 9.25 C4.50132813 9.93191406 4.62765625 10.61382812 4.7578125 11.31640625 C5.44812895 14.87153595 6.36769718 17.79217012 8 21 C8 22.32 8 23.64 8 25 C7.34 25 6.68 25 6 25 C6 25.66 6 26.32 6 27 C5.01 26.67 4.02 26.34 3 26 C-0.32999798 18.09264694 -2.01390068 9.55998113 -1 1 C-0.67 0.67 -0.34 0.34 0 0 Z " fill="#503584" transform="translate(6,105)"/>
<path d="M0 0 C10 10 10 10 12.625 12.6875 C14.97085755 15.11275676 14.97085755 15.11275676 18 17 C17.67 17.66 17.34 18.32 17 19 C16.01 18.67 15.02 18.34 14 18 C14 18.99 14 19.98 14 21 C12 21 12 21 9.75 18.875 C8.8425 17.92625 7.935 16.9775 7 16 C6.45214844 15.53078125 5.90429688 15.0615625 5.33984375 14.578125 C2.12090027 11.74728109 1.06478334 10.76444344 0.6875 6.3125 C0.790625 5.219375 0.89375 4.12625 1 3 C0.67 2.01 0.34 1.02 0 0 Z " fill="#694893" transform="translate(25,149)"/>
<path d="M0 0 C0.99 0.33 1.98 0.66 3 1 C3 1.66 3 2.32 3 3 C3.66 3.33 4.32 3.66 5 4 C0.30165217 8.91801085 -4.33507533 13.22338356 -10 17 C-10 16.01 -10 15.02 -10 14 C-10.99 14 -11.98 14 -13 14 C-11.89143124 10.67429373 -11.42629413 10.36502048 -8.625 8.5625 C-5.78670392 6.64708547 -3.9816758 4.81606561 -2 2 C-1.34 2 -0.68 2 0 2 C0 1.34 0 0.68 0 0 Z " fill="#523B7F" transform="translate(162,155)"/>
<path d="M0 0 C1.39702148 0.02030273 1.39702148 0.02030273 2.82226562 0.04101562 C5.11127646 0.07623118 7.39908458 0.12547901 9.6875 0.1875 C9.6875 0.5175 9.6875 0.8475 9.6875 1.1875 C7.7075 1.1875 5.7275 1.1875 3.6875 1.1875 C3.6875 1.8475 3.6875 2.5075 3.6875 3.1875 C2.6975 3.5175 1.7075 3.8475 0.6875 4.1875 C6.1325 4.6825 6.1325 4.6825 11.6875 5.1875 C11.6875 5.5175 11.6875 5.8475 11.6875 6.1875 C3.1075 6.1875 -5.4725 6.1875 -14.3125 6.1875 C-14.6425 5.1975 -14.9725 4.2075 -15.3125 3.1875 C-10.5137189 -0.66162758 -5.84149131 -0.16100223 0 0 Z " fill="#8067AD" transform="translate(97.3125,3.8125)"/>
<path d="M0 0 C0.33 0.99 0.66 1.98 1 3 C0.01 4.485 0.01 4.485 -1 6 C-0.34 6 0.32 6 1 6 C1 5.34 1 4.68 1 4 C4 3 4 3 6.1875 3.9375 C7.0846875 4.4634375 7.0846875 4.4634375 8 5 C3.84780332 8.74710432 0.34355865 11.25119899 -5 13 C-7.9375 12.6875 -7.9375 12.6875 -10 12 C-9.875 10.1875 -9.875 10.1875 -9 8 C-7 7 -5 6 -3 5 C-1.11868431 2.45211147 -1.11868431 2.45211147 0 0 Z " fill="#695199" transform="translate(64,143)"/>
<path d="M0 0 C-1.45810622 3.39465355 -3.33766728 5.52251713 -6 8.0625 C-8.37442798 10.33653856 -10.16347952 12.24521929 -12 15 C-12.99 14.67 -13.98 14.34 -15 14 C-15.4987562 11.25684092 -15.34832716 9.54653352 -13.83984375 7.1796875 C-9.71235105 2.13380129 -6.69233539 0 0 0 Z " fill="#452B7A" transform="translate(40,28)"/>
<path d="M0 0 C2.625 0.375 2.625 0.375 5 1 C5.33 2.32 5.66 3.64 6 5 C-2.261959 10.55580866 -2.261959 10.55580866 -7 11 C-7.33 10.01 -7.66 9.02 -8 8 C-10.01508358 7.26676204 -10.01508358 7.26676204 -12 7 C-11.30132812 6.66226563 -10.60265625 6.32453125 -9.8828125 5.9765625 C-8.97273438 5.53054687 -8.06265625 5.08453125 -7.125 4.625 C-6.22007813 4.18414062 -5.31515625 3.74328125 -4.3828125 3.2890625 C-1.90465528 2.09497301 -1.90465528 2.09497301 0 0 Z " fill="#AD99D0" transform="translate(88,160)"/>
<path d="M0 0 C5.56890517 0.47986031 10.67067568 1.29915181 16 3 C14.5625 5 14.5625 5 12 7 C7.7840052 7.58597762 4.0319464 7.34398213 0 6 C-0.75 4.0625 -0.75 4.0625 -1 2 C-0.67 1.34 -0.34 0.68 0 0 Z " fill="#9C8AC6" transform="translate(80,148)"/>
<path d="M0 0 C0.33 0.99 0.66 1.98 1 3 C1.99 3 2.98 3 4 3 C4 3.66 4 4.32 4 5 C2.08487728 5.50588147 0.16783078 6.00448391 -1.75 6.5 C-3.35101563 6.91765625 -3.35101563 6.91765625 -4.984375 7.34375 C-8 8 -8 8 -12 8 C-11.67 6.68 -11.34 5.36 -11 4 C-13.31 4 -15.62 4 -18 4 C-18 3.67 -18 3.34 -18 3 C-16.86820312 2.86722656 -15.73640625 2.73445312 -14.5703125 2.59765625 C-13.08851821 2.4194658 -11.60674864 2.24106971 -10.125 2.0625 C-9.00544922 1.93198242 -9.00544922 1.93198242 -7.86328125 1.79882812 C-3.8046769 1.36673937 -3.8046769 1.36673937 0 0 Z " fill="#4D347F" transform="translate(122,181)"/>
<path d="M0 0 C0.66 0 1.32 0 2 0 C2 1.32 2 2.64 2 4 C1.34 4 0.68 4 0 4 C0.309375 5.546875 0.309375 5.546875 0.625 7.125 C1.01194403 11.1234216 0.51883076 13.33693757 -1 17 C-2.32 16.67 -3.64 16.34 -5 16 C-5.40652968 10.57960425 -4.03993514 6.92984325 -2 2 C-1.34 2 -0.68 2 0 2 C0 1.34 0 0.68 0 0 Z " fill="#412A77" transform="translate(185,114)"/>
<path d="M0 0 C1.010625 0.763125 2.02125 1.52625 3.0625 2.3125 C6.55778575 4.82339915 9.9954434 6.44721275 14 8 C10.71412535 9.89569691 7.79549678 10.76762265 4 11 C1.125 9.5625 1.125 9.5625 -1 8 C-0.34 7.34 0.32 6.68 1 6 C0.34 5.34 -0.32 4.68 -1 4 C-0.625 1.875 -0.625 1.875 0 0 Z " fill="#AF9DD2" transform="translate(49,158)"/>
<path d="M0 0 C0.66 0.33 1.32 0.66 2 1 C2 1.66 2 2.32 2 3 C2.99 3 3.98 3 5 3 C5 7 5 7 3.6875 8.6875 C2 10 2 10 -1 11 C-3.1875 10.0625 -3.1875 10.0625 -5 9 C-3.375 2.25 -3.375 2.25 0 0 Z " fill="#583E96" transform="translate(125,137)"/>
<path d="M0 0 C3.72284268 0.50308685 5.57327341 1.11103977 8 4 C8.66 4.66 9.32 5.32 10 6 C9.67 6.66 9.34 7.32 9 8 C8.34 8 7.68 8 7 8 C7 8.66 7 9.32 7 10 C4.69 9.34 2.38 8.68 0 8 C0 5.36 0 2.72 0 0 Z " fill="#5D4696" transform="translate(82,97)"/>
<path d="M0 0 C0.33 0.66 0.66 1.32 1 2 C1.99 2.66 2.98 3.32 4 4 C-1.94 4 -7.88 4 -14 4 C-14 2.68 -14 1.36 -14 0 C-12.2300132 -0.19532961 -10.45895721 -0.38098882 -8.6875 -0.5625 C-7.70136719 -0.66691406 -6.71523437 -0.77132812 -5.69921875 -0.87890625 C-3 -1 -3 -1 0 0 Z " fill="#583F90" transform="translate(105,89)"/>
<path d="M0 0 C3.78125 0.734375 3.78125 0.734375 5.75 3.125 C7.2577334 6.59278683 7.22019353 9.25670998 7 13 C4 13 4 13 2.375 11.5625 C0.38503812 7.85393467 0.25738387 4.15364317 0 0 Z " fill="#402775" transform="translate(175,52)"/>
<path d="M0 0 C5.57513198 -0.35585949 11.06161289 0.15989754 16 3 C16.7578125 5.109375 16.7578125 5.109375 17 7 C14 6 14 6 13 5 C13 5.33 13 5.66 13 6 C11.35 6 9.7 6 8 6 C7.67 5.01 7.34 4.02 7 3 C5.02 3 3.04 3 1 3 C0.67 2.01 0.34 1.02 0 0 Z " fill="#462E7C" transform="translate(114,7)"/>
<path d="M0 0 C5.28 0.33 10.56 0.66 16 1 C16 1.33 16 1.66 16 2 C13.36 2 10.72 2 8 2 C8.66 3.32 9.32 4.64 10 6 C8.58249437 5.88490339 7.16598831 5.75746342 5.75 5.625 C4.96109375 5.55539063 4.1721875 5.48578125 3.359375 5.4140625 C0.914123 4.98492887 -0.84836903 4.21399362 -3 3 C-2.34 3 -1.68 3 -1 3 C-0.67 2.01 -0.34 1.02 0 0 Z " fill="#69539B" transform="translate(74,183)"/>
<path d="M0 0 C0.33 0 0.66 0 1 0 C1.103125 0.928125 1.20625 1.85625 1.3125 2.8125 C1.67240241 5.97659033 1.67240241 5.97659033 3.5546875 7.41796875 C5 9 5 9 5.14453125 11.15625 C5.03496094 11.9296875 4.92539063 12.703125 4.8125 13.5 C4.71582031 14.2734375 4.61914062 15.046875 4.51953125 15.84375 C4 18 4 18 2 21 C1.67 19.68 1.34 18.36 1 17 C1.66 17 2.32 17 3 17 C3 15.68 3 14.36 3 13 C2.34 13 1.68 13 1 13 C1 13.66 1 14.32 1 15 C0.34 15 -0.32 15 -1 15 C-0.67 10.05 -0.34 5.1 0 0 Z " fill="#715C9D" transform="translate(184,101)"/>
<path d="M0 0 C0.33 0 0.66 0 1 0 C1.8632601 3.71888866 2.11721556 7.14296488 2.09765625 10.95703125 C2.09443359 12.06884766 2.09121094 13.18066406 2.08789062 14.32617188 C2.07951172 15.47666016 2.07113281 16.62714844 2.0625 17.8125 C2.05798828 18.98232422 2.05347656 20.15214844 2.04882812 21.35742188 C2.0370693 24.23833358 2.02063426 27.11914044 2 30 C-0.77383932 27.22616068 -0.99005483 25.21621646 -1.02172852 21.34277344 C-0.97459717 20.35825195 -0.92746582 19.37373047 -0.87890625 18.359375 C-0.80639648 16.75449219 -0.80639648 16.75449219 -0.73242188 15.1171875 C-0.67634766 14.00601563 -0.62027344 12.89484375 -0.5625 11.75 C-0.51029297 10.62335937 -0.45808594 9.49671875 -0.40429688 8.3359375 C-0.27477014 5.55700028 -0.13980947 2.77843576 0 0 Z " fill="#4D3783" transform="translate(79,47)"/>
<path d="M0 0 C-0.33097938 3.08914085 -1.00284699 4.0026931 -3.3125 6.1875 C-5.69466602 7.79407709 -7.20379133 8.58574686 -10 9 C-10.33 7.68 -10.66 6.36 -11 5 C-4.85714286 -0.71428571 -4.85714286 -0.71428571 0 0 Z " fill="#513B82" transform="translate(152,169)"/>
<path d="M0 0 C0.66 0.33 1.32 0.66 2 1 C1.67 1.66 1.34 2.32 1 3 C1.66 3 2.32 3 3 3 C2 6 2 6 -1 8 C-4.13671875 8.1953125 -4.13671875 8.1953125 -7.6875 8.125 C-8.86699219 8.10695312 -10.04648438 8.08890625 -11.26171875 8.0703125 C-12.16535156 8.04710937 -13.06898437 8.02390625 -14 8 C-14 7.34 -14 6.68 -14 6 C-9.71 6 -5.42 6 -1 6 C-1.33 5.34 -1.66 4.68 -2 4 C-4.02463255 3.34786708 -4.02463255 3.34786708 -6 3 C-4.03533587 1.93224776 -2.03144641 0.93446535 0 0 Z " fill="#4F3783" transform="translate(112,146)"/>
<path d="M0 0 C-0.33 0.61875 -0.66 1.2375 -1 1.875 C-2.14193235 3.91018344 -2.14193235 3.91018344 -2 6 C-1.01 6.33 -0.02 6.66 1 7 C-2.68400584 8.23104155 -5.91474976 7.90767252 -9.75 7.5625 C-10.92046875 7.46066406 -12.0909375 7.35882813 -13.296875 7.25390625 C-14.18890625 7.17011719 -15.0809375 7.08632812 -16 7 C-16 6.67 -16 6.34 -16 6 C-11.545 5.505 -11.545 5.505 -7 5 C-7.33 4.01 -7.66 3.02 -8 2 C-8.66 1.67 -9.32 1.34 -10 1 C-8.71073008 0.63720544 -7.41846728 0.28503302 -6.125 -0.0625 C-5.40570313 -0.25972656 -4.68640625 -0.45695312 -3.9453125 -0.66015625 C-2 -1 -2 -1 0 0 Z " fill="#7544A2" transform="translate(113,87)"/>
<path d="M0 0 C1.98 0 3.96 0 6 0 C5.01 4.95 4.02 9.9 3 15 C-0.15353333 10.7952889 -0.36246719 10.14908143 -0.1875 5.25 C-0.16042969 4.26515625 -0.13335938 3.2803125 -0.10546875 2.265625 C-0.07066406 1.51796875 -0.03585938 0.7703125 0 0 Z " fill="#533583" transform="translate(6,71)"/>
<path d="M0 0 C0.66 0 1.32 0 2 0 C1.67 1.65 1.34 3.3 1 5 C1.66 5 2.32 5 3 5 C3 8.96 3 12.92 3 17 C1.68 16.34 0.36 15.68 -1 15 C-1.02715383 13.25008666 -1.04646551 11.50005055 -1.0625 9.75 C-1.07410156 8.77546875 -1.08570313 7.8009375 -1.09765625 6.796875 C-1.01195577 4.34241322 -0.70706066 2.33831086 0 0 Z " fill="#341C68" transform="translate(186,93)"/>
<path d="M0 0 C0.33 0.99 0.66 1.98 1 3 C1.99 3.66 2.98 4.32 4 5 C1.66666667 7.33333333 -0.66666667 9.66666667 -3 12 C-3.66 10.68 -4.32 9.36 -5 8 C-5.33 8.66 -5.66 9.32 -6 10 C-6.66 10 -7.32 10 -8 10 C-6.34908222 5.70761377 -3.26245434 3.1206085 0 0 Z " fill="#B69ED4" transform="translate(49,105)"/>
<path d="M0 0 C-0.33 0.66 -0.66 1.32 -1 2 C-0.34 2.66 0.32 3.32 1 4 C-3.09560617 5.61919314 -5.76801388 6.44778473 -10 5 C-12.3125 3.4375 -12.3125 3.4375 -14 2 C-4.58997722 -0.29612756 -4.58997722 -0.29612756 0 0 Z " fill="#584286" transform="translate(86,5)"/>
<path d="M0 0 C1.43791516 0.14168137 2.8753237 0.28851043 4.3125 0.4375 C5.11300781 0.51871094 5.91351563 0.59992188 6.73828125 0.68359375 C9 1 9 1 12 2 C11.67 3.32 11.34 4.64 11 6 C3.25531915 5.25531915 3.25531915 5.25531915 0 2 C0 1.34 0 0.68 0 0 Z " fill="#4B2E7B" transform="translate(62,180)"/>
<path d="M0 0 C1.65 0.33 3.3 0.66 5 1 C5.12375 1.639375 5.2475 2.27875 5.375 2.9375 C5.684375 3.9584375 5.684375 3.9584375 6 5 C6.66 5.33 7.32 5.66 8 6 C6.68 6.99 5.36 7.98 4 9 C3.67 8.01 3.34 7.02 3 6 C0.98491642 5.26676204 0.98491642 5.26676204 -1 5 C-0.67 3.35 -0.34 1.7 0 0 Z " fill="#563D92" transform="translate(113,41)"/>
<path d="M0 0 C3.77545388 1.09068668 6.47043472 1.9083091 9 5 C8.34 6.32 7.68 7.64 7 9 C0.25998646 5.56872038 0.25998646 5.56872038 -1 2.8125 C-1 1 -1 1 0 0 Z " fill="#432B77" transform="translate(39,166)"/>
<path d="M0 0 C1.98 0.66 3.96 1.32 6 2 C5.67 3.32 5.34 4.64 5 6 C2.83032311 6.95465783 1.43671207 7.14401212 -0.82421875 6.3984375 C-2.5684743 5.64129615 -4.28627131 4.82390802 -6 4 C-5.34 3.01 -4.68 2.02 -4 1 C-2 1 -2 1 -0.375 2.5 C0.07875 2.995 0.5325 3.49 1 4 C0.67 2.68 0.34 1.36 0 0 Z " fill="#604B8C" transform="translate(130,10)"/>
<path d="M0 0 C1.32 0.99 2.64 1.98 4 3 C3.46930939 6.82097239 2.50298434 9.06171403 0 12 C-0.33 11.01 -0.66 10.02 -1 9 C-1.66 8.67 -2.32 8.34 -3 8 C-1.125 2.25 -1.125 2.25 0 0 Z " fill="#594288" transform="translate(179,128)"/>
<path d="M0 0 C1.32 0.99 2.64 1.98 4 3 C2.79618552 5.49361571 1.54571278 7.68143083 0 10 C-0.99 9.67 -1.98 9.34 -3 9 C-3.26218749 5.85375007 -3.24754367 4.38162983 -1.5 1.6875 C-1.005 1.130625 -0.51 0.57375 0 0 Z M2 1 C4 2 4 2 4 2 Z " fill="#533482" transform="translate(28,33)"/>
<path d="M0 0 C0.99 0 1.98 0 3 0 C2.95875 0.78375 2.9175 1.5675 2.875 2.375 C2.71271266 5.16116119 2.71271266 5.16116119 5 7 C2.6875 7.625 2.6875 7.625 0 8 C-0.99 7.34 -1.98 6.68 -3 6 C-3 4.68 -3 3.36 -3 2 C-2.01 2 -1.02 2 0 2 C0 1.34 0 0.68 0 0 Z " fill="#A08FC9" transform="translate(46,157)"/>
<path d="M0 0 C1.98 0 3.96 0 6 0 C6.66 1.32 7.32 2.64 8 4 C1.07 4 -5.86 4 -13 4 C-13 3.67 -13 3.34 -13 3 C-6.565 2.505 -6.565 2.505 0 2 C0 1.34 0 0.68 0 0 Z " fill="#361C65" transform="translate(101,5)"/>
<path d="M0 0 C0.33 0 0.66 0 1 0 C1 6.6 1 13.2 1 20 C0.67 20 0.34 20 0 20 C0 17.03 0 14.06 0 11 C-0.66 11 -1.32 11 -2 11 C-1.67 9.35 -1.34 7.7 -1 6 C-1.66 6 -2.32 6 -3 6 C-3.33 7.32 -3.66 8.64 -4 10 C-4 8.35 -4 6.7 -4 5 C-3.01 5 -2.02 5 -1 5 C-0.67 3.35 -0.34 1.7 0 0 Z " fill="#7E69AD" transform="translate(189,87)"/>
<path d="M0 0 C2.64 0 5.28 0 8 0 C8 2.62113708 7.68707555 4.50935112 7 7 C6.34 6.34 5.68 5.68 5 5 C3.01178687 4.60235737 1.01055661 4.26224651 -1 4 C-0.67 2.68 -0.34 1.36 0 0 Z " fill="#644995" transform="translate(57,40)"/>
<path d="M0 0 C1.65 0 3.3 0 5 0 C5 0.99 5 1.98 5 3 C1.79619983 5.13586678 0.98060033 5.23132175 -2.6875 5.125 C-3.49574219 5.10695312 -4.30398437 5.08890625 -5.13671875 5.0703125 C-6.05904297 5.03550781 -6.05904297 5.03550781 -7 5 C-7.33 4.34 -7.66 3.68 -8 3 C-5.36 2.67 -2.72 2.34 0 2 C0 1.34 0 0.68 0 0 Z " fill="#8A7BC8" transform="translate(90,150)"/>
<path d="M0 0 C3.375 0.3125 3.375 0.3125 7 1 C9 4 9 4 8.625 6.6875 C8.41875 7.450625 8.2125 8.21375 8 9 C5.06799526 6.14723863 2.35684596 3.34920216 0 0 Z " fill="#4A337E" transform="translate(18,148)"/>
<path d="M0 0 C1.65 0 3.3 0 5 0 C4.67 1.98 4.34 3.96 4 6 C2.68 6.33 1.36 6.66 0 7 C0 6.34 0 5.68 0 5 C-0.66 5 -1.32 5 -2 5 C-1.34 3.35 -0.68 1.7 0 0 Z " fill="#4A317B" transform="translate(165,151)"/>
<path d="M0 0 C1.65 0 3.3 0 5 0 C4.01 0.33 3.02 0.66 2 1 C1.84850702 4.62885324 1.84850702 4.62885324 3 8 C-0.37462715 7.45276317 -2.08235 6.9451 -5 5 C-3.625 3.5 -3.625 3.5 -2 2 C-1.34 2 -0.68 2 0 2 C0 1.34 0 0.68 0 0 Z " fill="#6A4D9D" transform="translate(111,40)"/>
<path d="M0 0 C1.6875 1.5625 1.6875 1.5625 3 3 C0.38058783 4.74627478 -1.03824877 5.38722388 -4 6 C-4.12375 5.360625 -4.2475 4.72125 -4.375 4.0625 C-4.684375 3.0415625 -4.684375 3.0415625 -5 2 C-5.66 1.67 -6.32 1.34 -7 1 C-3.375 -1.125 -3.375 -1.125 0 0 Z " fill="#614E98" transform="translate(64,11)"/>
<path d="M0 0 C2.97 0 5.94 0 9 0 C8.67 1.32 8.34 2.64 8 4 C5.36 4 2.72 4 0 4 C0 2.68 0 1.36 0 0 Z " fill="#3B216C" transform="translate(102,185)"/>
<path d="M0 0 C-0.55105909 3.9492568 -1.38935371 7.34920174 -3 11 C-3.33 10.34 -3.66 9.68 -4 9 C-4.66 8.67 -5.32 8.34 -6 8 C-5.01 6.68 -4.02 5.36 -3 4 C-3.99 4.33 -4.98 4.66 -6 5 C-5.6875 3.0625 -5.6875 3.0625 -5 1 C-2 0 -2 0 0 0 Z " fill="#543A84" transform="translate(19,52)"/>
<path d="M0 0 C0.66 0 1.32 0 2 0 C2.66 0.66 3.32 1.32 4 2 C5.051875 2.99 5.051875 2.99 6.125 4 C8 6 8 6 8 8 C5.07459296 7.37312706 2.5164751 6.64872507 0 5 C-0.8125 2.9375 -0.8125 2.9375 -1 1 C-0.67 0.67 -0.34 0.34 0 0 Z " fill="#473177" transform="translate(143,18)"/>
<path d="M0 0 C0.99 0.33 1.98 0.66 3 1 C4.1875 4.0625 4.1875 4.0625 5 7 C4.34 7 3.68 7 3 7 C3 7.66 3 8.32 3 9 C2.01 8.67 1.02 8.34 0 8 C-0.38063221 5.6739143 -0.71269945 3.33944736 -1 1 C-0.67 0.67 -0.34 0.34 0 0 Z " fill="#422C75" transform="translate(9,123)"/>
<path d="M0 0 C0.66 0.33 1.32 0.66 2 1 C2 5.95 2 10.9 2 16 C1.67 15.34 1.34 14.68 1 14 C0.34 14 -0.32 14 -1 14 C-0.67 9.38 -0.34 4.76 0 0 Z " fill="#634D95" transform="translate(79,101)"/>
<path d="M0 0 C3.3 0 6.6 0 10 0 C9.34 1.32 8.68 2.64 8 4 C2.25 4.125 2.25 4.125 0 3 C0 2.01 0 1.02 0 0 Z " fill="#573E8F" transform="translate(100,41)"/>
<path d="M0 0 C0.66 0.33 1.32 0.66 2 1 C1.505 1.4125 1.01 1.825 0.5 2.25 C-1.43386092 4.12202338 -1.43386092 4.12202338 -1 8 C-2.98 8.66 -4.96 9.32 -7 10 C-5.6561086 3.52488688 -5.6561086 3.52488688 -2.5 1 C-1.675 0.67 -0.85 0.34 0 0 Z " fill="#705999" transform="translate(143,171)"/>
<path d="M0 0 C0.99 0.33 1.98 0.66 3 1 C3 2.65 3 4.3 3 6 C0.92446352 6.5534764 -0.84365964 7 -3 7 C-2.25 2.25 -2.25 2.25 0 0 Z " fill="#483076" transform="translate(176,136)"/>
<path d="M0 0 C2.64 0.33 5.28 0.66 8 1 C6.68 1.33 5.36 1.66 4 2 C4 2.99 4 3.98 4 5 C1.36 4.67 -1.28 4.34 -4 4 C-4 3.34 -4 2.68 -4 2 C-2.68 2 -1.36 2 0 2 C0 1.34 0 0.68 0 0 Z " fill="#A897C8" transform="translate(59,166)"/>
<path d="M0 0 C2.40921705 2.40921705 3.53812156 4.94334509 5 8 C3.68 7.67 2.36 7.34 1 7 C1.33 8.32 1.66 9.64 2 11 C1.34 11 0.68 11 0 11 C-0.99 9.02 -1.98 7.04 -3 5 C-2.34 4.67 -1.68 4.34 -1 4 C-0.34786708 1.97536745 -0.34786708 1.97536745 0 0 Z " fill="#6C5796" transform="translate(174,45)"/>
<path d="M0 0 C0.33 0 0.66 0 1 0 C1.02708567 1.60407328 1.04643483 3.2082785 1.0625 4.8125 C1.07410156 5.70582031 1.08570312 6.59914062 1.09765625 7.51953125 C1 10 1 10 0 13 C-1.32 12.67 -2.64 12.34 -4 12 C-2.66666667 8 -1.33333333 4 0 0 Z " fill="#694F95" transform="translate(80,124)"/>
<path d="M0 0 C8.03501094 -0.63019694 8.03501094 -0.63019694 12.0625 2 C12.701875 2.66 13.34125 3.32 14 4 C11.36 4.33 8.72 4.66 6 5 C6.33 3.68 6.66 2.36 7 1 C4.69 1 2.38 1 0 1 C0 0.67 0 0.34 0 0 Z " fill="#8265AD" transform="translate(104,184)"/>
<path d="M0 0 C0.99 0.33 1.98 0.66 3 1 C3 1.66 3 2.32 3 3 C3.66 3 4.32 3 5 3 C5.33 3.99 5.66 4.98 6 6 C2.66666667 6 -0.66666667 6 -4 6 C-2.68 4.02 -1.36 2.04 0 0 Z " fill="#543B8A" transform="translate(120,78)"/>
<path d="M0 0 C0 0.66 0 1.32 0 2 C0.66 2.33 1.32 2.66 2 3 C-3.75 6 -3.75 6 -6 6 C-5.625 3.5625 -5.625 3.5625 -5 1 C-3 0 -3 0 0 0 Z " fill="#412875" transform="translate(59,13)"/>
<path d="M0 0 C1.11375 0.556875 1.11375 0.556875 2.25 1.125 C2.25 2.115 2.25 3.105 2.25 4.125 C1.26 3.795 0.27 3.465 -0.75 3.125 C-0.75 4.115 -0.75 5.105 -0.75 6.125 C-1.41 6.125 -2.07 6.125 -2.75 6.125 C-4.13232443 4.49873596 -5.46937515 2.8324998 -6.75 1.125 C-4.02098495 -0.69434337 -3.21400584 -1.02263822 0 0 Z " fill="#7A559F" transform="translate(39.75,163.875)"/>
<path d="M0 0 C0.33 0 0.66 0 1 0 C2.905247 5.10334017 4.42589023 9.46342706 4 15 C3.67 15 3.34 15 3 15 C2.34 12.69 1.68 10.38 1 8 C0.67 9.65 0.34 11.3 0 13 C-0.33 13 -0.66 13 -1 13 C-0.67 8.71 -0.34 4.42 0 0 Z " fill="#8A64B0" transform="translate(5,77)"/>
<path d="M0 0 C-1.1858237 3.37503669 -2.27573689 5.64722731 -5 8 C-5.99 7.67 -6.98 7.34 -8 7 C-8 6.34 -8 5.68 -8 5 C-2.52380952 0 -2.52380952 0 0 0 Z " fill="#685097" transform="translate(133,76)"/>
<path d="M0 0 C0.66 0.33 1.32 0.66 2 1 C1.67 1.66 1.34 2.32 1 3 C1.66 3 2.32 3 3 3 C2.67 3.99 2.34 4.98 2 6 C1.01 6.33 0.02 6.66 -1 7 C-1.33 6.01 -1.66 5.02 -2 4 C-4.01508358 3.26676204 -4.01508358 3.26676204 -6 3 C-4.03533587 1.93224776 -2.03144641 0.93446535 0 0 Z " fill="#533A8E" transform="translate(112,146)"/>
<path d="M0 0 C1.65 0 3.3 0 5 0 C3.84826645 2.46800047 2.95216435 4.04783565 1 6 C0.01 6 -0.98 6 -2 6 C-1.34 4.02 -0.68 2.04 0 0 Z " fill="#A594C6" transform="translate(55,101)"/>
<path d="M0 0 C1.4606285 2.64738916 2 3.89448334 2 7 C1.34 7.66 0.68 8.32 0 9 C-0.33 8.34 -0.66 7.68 -1 7 C-1.99 6.34 -2.98 5.68 -4 5 C-2.68 3.35 -1.36 1.7 0 0 Z " fill="#674894" transform="translate(24,38)"/>
<path d="M0 0 C1.11375 0.1546875 1.11375 0.1546875 2.25 0.3125 C1.92 1.9625 1.59 3.6125 1.25 5.3125 C0.92 4.6525 0.59 3.9925 0.25 3.3125 C-2.06 3.9725 -4.37 4.6325 -6.75 5.3125 C-3.42692308 0.38942308 -3.42692308 0.38942308 0 0 Z " fill="#573F87" transform="translate(39.75,24.6875)"/>
<path d="M0 0 C1.65 0 3.3 0 5 0 C5 1.32 5 2.64 5 4 C7.31 4 9.62 4 12 4 C12 4.33 12 4.66 12 5 C10.37536158 5.05395478 8.75021459 5.09277195 7.125 5.125 C6.22007813 5.14820313 5.31515625 5.17140625 4.3828125 5.1953125 C2 5 2 5 0 3 C0.66 2.67 1.32 2.34 2 2 C1.34 1.34 0.68 0.68 0 0 Z " fill="#816AB1" transform="translate(97,185)"/>
<path d="M0 0 C1.65 0.33 3.3 0.66 5 1 C4.01 1.495 4.01 1.495 3 2 C3 2.99 3 3.98 3 5 C0.625 5.1875 0.625 5.1875 -2 5 C-2.66 4.01 -3.32 3.02 -4 2 C-3.01 2 -2.02 2 -1 2 C-0.67 1.34 -0.34 0.68 0 0 Z " fill="#6F5895" transform="translate(47,171)"/>
<path d="M0 0 C0.99 0.33 1.98 0.66 3 1 C3 1.66 3 2.32 3 3 C3.66 3.33 4.32 3.66 5 4 C4.01 4.66 3.02 5.32 2 6 C0 5.33333333 -2 4.66666667 -4 4 C-2.68 3.34 -1.36 2.68 0 2 C0 1.34 0 0.68 0 0 Z " fill="#74639C" transform="translate(162,155)"/>
<path d="M0 0 C0.33 0 0.66 0 1 0 C1 1.98 1 3.96 1 6 C0.01 5.67 -0.98 5.34 -2 5 C-2.33 6.98 -2.66 8.96 -3 11 C-3.33 11 -3.66 11 -4 11 C-4.1953125 4.9453125 -4.1953125 4.9453125 -4 3 C-3.34 2.34 -2.68 1.68 -2 1 C-1.34 1.33 -0.68 1.66 0 2 C0 1.34 0 0.68 0 0 Z " fill="#8167AD" transform="translate(8,101)"/>
<path d="M0 0 C0.33 0.66 0.66 1.32 1 2 C1.66 2 2.32 2 3 2 C3 3.98 3 5.96 3 8 C1.68 7.67 0.36 7.34 -1 7 C-1.04254356 5.00045254 -1.04080783 2.99958364 -1 1 C-0.67 0.67 -0.34 0.34 0 0 Z " fill="#371F6B" transform="translate(6,105)"/>
<path d="M0 0 C1.32 0.33 2.64 0.66 4 1 C3.67 1.99 3.34 2.98 3 4 C2.34 4 1.68 4 1 4 C1 4.66 1 5.32 1 6 C-0.65 5.67 -2.3 5.34 -4 5 C-4 4.34 -4 3.68 -4 3 C-2.68 3 -1.36 3 0 3 C0 2.01 0 1.02 0 0 Z " fill="#553C8A" transform="translate(88,101)"/>
<path d="M0 0 C0.99 0.33 1.98 0.66 3 1 C1.60667426 4.36720387 0.0210714 5.9859524 -3 8 C-3.33 7.01 -3.66 6.02 -4 5 C-3.34 4.54625 -2.68 4.0925 -2 3.625 C-1.34 3.08875 -0.68 2.5525 0 2 C0 1.34 0 0.68 0 0 Z " fill="#58448C" transform="translate(161,159)"/>
<path d="M0 0 C0.66 1.32 1.32 2.64 2 4 C1.01 4.66 0.02 5.32 -1 6 C-1.33 6.99 -1.66 7.98 -2 9 C-2.66 7.02 -3.32 5.04 -4 3 C-3.34 3 -2.68 3 -2 3 C-2 2.34 -2 1.68 -2 1 C-1.34 0.67 -0.68 0.34 0 0 Z " fill="#7D59A6" transform="translate(14,129)"/>
<path d="M0 0 C-0.33 2.31 -0.66 4.62 -1 7 C-1.99 7 -2.98 7 -4 7 C-4 5.02 -4 3.04 -4 1 C-1 0 -1 0 0 0 Z " fill="#351B69" transform="translate(189,85)"/>
<path d="M0 0 C0 1.65 0 3.3 0 5 C-1.65 5.33 -3.3 5.66 -5 6 C-4.67 4.35 -4.34 2.7 -4 1 C-1 0 -1 0 0 0 Z " fill="#3E2273" transform="translate(12,66)"/>
<path d="M0 0 C0.66 0.33 1.32 0.66 2 1 C1.34 2.32 0.68 3.64 0 5 C0.66 5 1.32 5 2 5 C2 5.66 2 6.32 2 7 C1.01 7.33 0.02 7.66 -1 8 C-1 7.01 -1 6.02 -1 5 C-2.32 4.67 -3.64 4.34 -5 4 C-3.35 2.68 -1.7 1.36 0 0 Z " fill="#725F98" transform="translate(43,20)"/>
<path d="M0 0 C0.33 1.32 0.66 2.64 1 4 C1.99 3.34 2.98 2.68 4 2 C4.99 2.33 5.98 2.66 7 3 C3.04 4.98 3.04 4.98 -1 7 C-1.33 5.02 -1.66 3.04 -2 1 C-1.34 0.67 -0.68 0.34 0 0 Z " fill="#68569C" transform="translate(52,15)"/>
<path d="M0 0 C0.33 0.66 0.66 1.32 1 2 C1.66 2 2.32 2 3 2 C3.33 1.34 3.66 0.68 4 0 C4.6875 1.75 4.6875 1.75 5 4 C3.5625 6.25 3.5625 6.25 2 8 C1.87625 7.195625 1.7525 6.39125 1.625 5.5625 C1.315625 4.2940625 1.315625 4.2940625 1 3 C0.34 2.67 -0.32 2.34 -1 2 C-0.67 1.34 -0.34 0.68 0 0 Z " fill="#715A99" transform="translate(172,141)"/>
<path d="M0 0 C0.66 0 1.32 0 2 0 C2 1.32 2 2.64 2 4 C1.34 4 0.68 4 0 4 C0.33 5.32 0.66 6.64 1 8 C0.01 7.67 -0.98 7.34 -2 7 C-2 5.35 -2 3.7 -2 2 C-1.34 2 -0.68 2 0 2 C0 1.34 0 0.68 0 0 Z " fill="#371F6B" transform="translate(185,114)"/>
<path d="M0 0 C1.32 0.33 2.64 0.66 4 1 C4 2.65 4 4.3 4 6 C3.01 6.33 2.02 6.66 1 7 C0.67 4.69 0.34 2.38 0 0 Z " fill="#3D2570" transform="translate(175,52)"/>
<path d="M0 0 C2.475 0.99 2.475 0.99 5 2 C4.34 2.66 3.68 3.32 3 4 C3 4.99 3 5.98 3 7 C1.02 6.34 -0.96 5.68 -3 5 C-2.505 4.54625 -2.01 4.0925 -1.5 3.625 C0.22609337 2.12364481 0.22609337 2.12364481 0 0 Z " fill="#604B91" transform="translate(140,15)"/>
<path d="M0 0 C3.68754757 0.49831724 5.60490662 1.10067643 8 4 C7.278125 3.814375 6.55625 3.62875 5.8125 3.4375 C2.87173027 2.98004693 0.85896942 3.26483643 -2 4 C-1.34 3.67 -0.68 3.34 0 3 C0 2.01 0 1.02 0 0 Z " fill="#5A3988" transform="translate(50,173)"/>
<path d="M0 0 C1.65 0.33 3.3 0.66 5 1 C4.67 1.99 4.34 2.98 4 4 C2.35 3.67 0.7 3.34 -1 3 C-0.67 2.01 -0.34 1.02 0 0 Z " fill="#463176" transform="translate(32,161)"/>
<path d="M0 0 C0.66 0 1.32 0 2 0 C1.67 1.65 1.34 3.3 1 5 C1.66 5 2.32 5 3 5 C3 6.98 3 8.96 3 11 C1 10 1 10 0 7 C-0.03954234 4.66700175 -0.04401732 2.33291811 0 0 Z " fill="#3D2273" transform="translate(186,93)"/>
<path d="M0 0 C3 1 3 1 4 3 C4.99 3.66 5.98 4.32 7 5 C3.7 5 0.4 5 -3 5 C-2.01 4.34 -1.02 3.68 0 3 C0 2.01 0 1.02 0 0 Z " fill="#4B348A" transform="translate(102,88)"/>
<path d="M0 0 C-0.66 1.32 -1.32 2.64 -2 4 C-3.98 4 -5.96 4 -8 4 C-5.29881977 1.17603885 -4.05589853 0 0 0 Z " fill="#653C94" transform="translate(124,85)"/>
<path d="M0 0 C0.33 0.66 0.66 1.32 1 2 C2.65 1.67 4.3 1.34 6 1 C5.34 3.31 4.68 5.62 4 8 C3.34 6.68 2.68 5.36 2 4 C1.34 4 0.68 4 0 4 C0 2.68 0 1.36 0 0 Z " fill="#5E3D8B" transform="translate(9,63)"/>
<path d="M0 0 C0.99 0.33 1.98 0.66 3 1 C3.6875 3.0625 3.6875 3.0625 4 5 C2.35 4.67 0.7 4.34 -1 4 C-0.67 2.68 -0.34 1.36 0 0 Z " fill="#7863A4" transform="translate(55,151)"/>
<path d="M0 0 C0.33 0.99 0.66 1.98 1 3 C-0.9375 6.1875 -0.9375 6.1875 -3 9 C-4.32 8.34 -5.64 7.68 -7 7 C-6.401875 6.773125 -5.80375 6.54625 -5.1875 6.3125 C-2.43648112 4.66188867 -1.47515363 2.8027919 0 0 Z " fill="#8271AE" transform="translate(64,143)"/>
<path d="M0 0 C1.65 0 3.3 0 5 0 C4.67 1.32 4.34 2.64 4 4 C2.68 4 1.36 4 0 4 C0 2.68 0 1.36 0 0 Z " fill="#6D5899" transform="translate(91,89)"/>
<path d="M0 0 C1.5625 1.125 1.5625 1.125 3 3 C2.6875 6.1875 2.6875 6.1875 2 9 C1.34 8.67 0.68 8.34 0 8 C0 5.36 0 2.72 0 0 Z " fill="#37206A" transform="translate(5,84)"/>
<path d="M0 0 C1.32 0 2.64 0 4 0 C2.60667426 3.36720387 1.0210714 4.9859524 -2 7 C-2 6.01 -2 5.02 -2 4 C-1.34 4 -0.68 4 0 4 C0 2.68 0 1.36 0 0 Z " fill="#4E347E" transform="translate(36,28)"/>
<path d="M0 0 C1.32 0.33 2.64 0.66 4 1 C4 1.66 4 2.32 4 3 C3.01 3 2.02 3 1 3 C1 3.66 1 4.32 1 5 C0.01 4.67 -0.98 4.34 -2 4 C-1.34 2.68 -0.68 1.36 0 0 Z " fill="#361F72" transform="translate(135,176)"/>
<path d="M0 0 C0.66 0 1.32 0 2 0 C2 0.99 2 1.98 2 3 C1.01 3.495 1.01 3.495 0 4 C-1.13350534 6.01669827 -1.13350534 6.01669827 -2 8 C-2.66 7.67 -3.32 7.34 -4 7 C-3.01595171 4.04785514 -2.01178391 2.33366933 0 0 Z " fill="#3E2770" transform="translate(145,170)"/>
<path d="M0 0 C0.66 0.33 1.32 0.66 2 1 C0.86695008 4.39914975 -0.12518475 5.05254451 -3 7 C-3.33 6.34 -3.66 5.68 -4 5 C-3 2 -3 2 0 0 Z " fill="#533A88" transform="translate(125,137)"/>
<path d="M0 0 C0.99 1.32 1.98 2.64 3 4 C2.01 4.495 2.01 4.495 1 5 C0.34786708 7.02463255 0.34786708 7.02463255 0 9 C-0.66 9 -1.32 9 -2 9 C-1.34 6.03 -0.68 3.06 0 0 Z " fill="#503C8C" transform="translate(182,118)"/>
<path d="M0 0 C1.65 0 3.3 0 5 0 C5.33 1.32 5.66 2.64 6 4 C3 3 3 3 2 2 C1.01 2.33 0.02 2.66 -1 3 C-0.67 2.01 -0.34 1.02 0 0 Z " fill="#361D6E" transform="translate(125,10)"/>
<path d="M0 0 C2.0625 0.4375 2.0625 0.4375 4 1 C3.67 2.32 3.34 3.64 3 5 C1.68 5.33 0.36 5.66 -1 6 C-1.042721 4.33388095 -1.04063832 2.66617115 -1 1 C-0.67 0.67 -0.34 0.34 0 0 Z " fill="#6C4A9B" transform="translate(6,111)"/>
<path d="M0 0 C2.9375 0.8125 2.9375 0.8125 6 2 C6.33 2.99 6.66 3.98 7 5 C6.34 5.66 5.68 6.32 5 7 C3.35 4.69 1.7 2.38 0 0 Z " fill="#6E579F" transform="translate(122,100)"/>
<path d="M0 0 C1.5 1.375 1.5 1.375 3 3 C3 3.66 3 4.32 3 5 C1.68 4.67 0.36 4.34 -1 4 C-1.33 4.99 -1.66 5.98 -2 7 C-2 5.68 -2 4.36 -2 3 C-1.34 3 -0.68 3 0 3 C0 2.01 0 1.02 0 0 Z " fill="#765F9D" transform="translate(179,55)"/>
</svg>
